<?xml version="1.0" encoding="UTF-8" standalone="no"?>
<!-- Generator: Adobe Illustrator 16.0.0, SVG Export Plug-In . SVG Version: 6.00 Build 0)  -->

<svg
   xmlns:dc="http://purl.org/dc/elements/1.1/"
   xmlns:cc="http://creativecommons.org/ns#"
   xmlns:rdf="http://www.w3.org/1999/02/22-rdf-syntax-ns#"
   xmlns:svg="http://www.w3.org/2000/svg"
   xmlns="http://www.w3.org/2000/svg"
   xmlns:sodipodi="http://sodipodi.sourceforge.net/DTD/sodipodi-0.dtd"
   xmlns:inkscape="http://www.inkscape.org/namespaces/inkscape"
   version="1.1"
   id="Layer_1"
   x="0px"
   y="0px"
   width="100"
   height="100"
   viewBox="0 0 99.999998 100"
   enable-background="new 0 0 53.345 100"
   xml:space="preserve"
   inkscape:version="0.48.5 r10040"
   sodipodi:docname="noun_11474.svg"><metadata
     id="metadata31"><rdf:RDF><cc:Work
         rdf:about=""><dc:format>image/svg+xml</dc:format><dc:type
           rdf:resource="http://purl.org/dc/dcmitype/StillImage" /><dc:title></dc:title></cc:Work></rdf:RDF></metadata><defs
     id="defs29" /><sodipodi:namedview
     pagecolor="#ffffff"
     bordercolor="#666666"
     borderopacity="1"
     objecttolerance="10"
     gridtolerance="10"
     guidetolerance="10"
     inkscape:pageopacity="0"
     inkscape:pageshadow="2"
     inkscape:window-width="2117"
     inkscape:window-height="1102"
     id="namedview27"
     showgrid="false"
     inkscape:zoom="7.9926562"
     inkscape:cx="16.252669"
     inkscape:cy="50"
     inkscape:window-x="0"
     inkscape:window-y="55"
     inkscape:window-maximized="0"
     inkscape:current-layer="Layer_1" /><path
     d="m 50.599,0.22 c -4.028,0 -7.281,4.893 -7.281,10.901 0,6.01 3.253,10.863 7.281,10.863 4.027,0 7.281,-4.853 7.281,-10.863 C 57.879,5.112 54.625,0.22 50.599,0.22 z m 0,17.159 c -2.43,0 -4.408,-2.948 -4.408,-6.572 0,-3.625 1.978,-6.573 4.408,-6.573 2.428,0 4.407,2.948 4.407,6.573 -10e-4,3.624 -1.979,6.572 -4.407,6.572 z"
     id="path3"
     inkscape:connector-curvature="0"
     style="fill:#010101" /><rect
     x="47.821999"
     y="26.674"
     width="5.5510001"
     height="21.764"
     id="rect5"
     style="fill:#010101" /><rect
     x="47.821999"
     y="52.898998"
     width="5.5510001"
     height="21.764999"
     id="rect7"
     style="fill:#010101" /><path
     d="m 50.599,78.015 c -4.028,0 -7.281,4.892 -7.281,10.902 0,6.009 3.253,10.861 7.281,10.861 4.027,0 7.281,-4.853 7.281,-10.861 -0.001,-6.01 -3.255,-10.902 -7.281,-10.902 z m 0,17.159 c -2.43,0 -4.408,-2.947 -4.408,-6.572 0,-3.625 1.978,-6.572 4.408,-6.572 2.428,0 4.407,2.947 4.407,6.572 0,3.625 -1.979,6.572 -4.407,6.572 z"
     id="path9"
     inkscape:connector-curvature="0"
     style="fill:#010101" /><rect
     x="67.289001"
     y="0.227"
     width="5.553"
     height="21.764"
     id="rect11"
     style="fill:#010101" /><path
     d="m 70.065,48.43 c 4.027,0 7.28,-4.853 7.28,-10.862 0,-6.009 -3.253,-10.902 -7.28,-10.902 -4.027,0 -7.28,4.893 -7.28,10.902 0,6.009 3.253,10.862 7.28,10.862 z m 0,-17.749 c 2.43,0 4.408,2.948 4.408,6.572 0,3.624 -1.979,6.572 -4.408,6.572 -2.429,0 -4.407,-2.948 -4.407,-6.572 0,-3.624 1.977,-6.572 4.407,-6.572 z"
     id="path13"
     inkscape:connector-curvature="0"
     style="fill:#010101" /><rect
     x="67.289001"
     y="52.669998"
     width="5.553"
     height="21.764"
     id="rect15"
     style="fill:#010101" /><path
     d="m 70.065,78.009 c -4.027,0 -7.28,4.891 -7.28,10.9 0,6.011 3.253,10.863 7.28,10.863 4.027,0 7.28,-4.853 7.28,-10.863 0,-6.008 -3.253,-10.9 -7.28,-10.9 z m 0,17.159 c -2.43,0 -4.407,-2.948 -4.407,-6.572 0,-3.625 1.978,-6.573 4.407,-6.573 2.429,0 4.408,2.948 4.408,6.573 0,3.624 -1.978,6.572 -4.408,6.572 z"
     id="path17"
     inkscape:connector-curvature="0"
     style="fill:#010101" /><rect
     x="28.505001"
     y="78.236"
     width="5.552"
     height="21.764"
     id="rect19"
     style="fill:#010101" /><path
     d="m 31.281,52.453 c -4.028,0 -7.281,4.893 -7.281,10.901 0,6.01 3.253,10.862 7.281,10.862 4.027,0 7.281,-4.853 7.281,-10.862 0,-6.008 -3.254,-10.901 -7.281,-10.901 z m 0,17.159 c -2.43,0 -4.408,-2.947 -4.408,-6.572 0,-3.625 1.978,-6.572 4.408,-6.572 2.429,0 4.408,2.947 4.408,6.572 0,3.625 -1.979,6.572 -4.408,6.572 z"
     id="path21"
     inkscape:connector-curvature="0"
     style="fill:#010101" /><path
     d="m 31.281,26.004 c -4.028,0 -7.281,4.892 -7.281,10.902 0,6.009 3.253,10.862 7.281,10.862 4.027,0 7.281,-4.853 7.281,-10.862 0,-6.01 -3.254,-10.902 -7.281,-10.902 z m 0,17.16 c -2.43,0 -4.408,-2.948 -4.408,-6.573 0,-3.625 1.978,-6.572 4.408,-6.572 2.429,0 4.408,2.948 4.408,6.572 -10e-4,3.625 -1.979,6.573 -4.408,6.573 z"
     id="path23"
     inkscape:connector-curvature="0"
     style="fill:#010101" /><path
     d="M 31.281,0 C 27.253,0 24,4.892 24,10.901 c 0,6.01 3.253,10.863 7.281,10.863 4.027,0 7.281,-4.853 7.281,-10.863 C 38.562,4.892 35.308,0 31.281,0 z m 0,17.159 c -2.43,0 -4.408,-2.948 -4.408,-6.573 0,-3.625 1.978,-6.572 4.408,-6.572 2.429,0 4.408,2.948 4.408,6.572 -10e-4,3.625 -1.979,6.573 -4.408,6.573 z"
     id="path25"
     inkscape:connector-curvature="0"
     style="fill:#010101" /></svg>