ply
format ascii 1.0
comment Created by Blender 2.65 (sub 0) - www.blender.org, source file: 'camera-model.blend'
element vertex 16
property float x
property float y
property float z
property float nx
property float ny
property float nz
property uchar red
property uchar green
property uchar blue
element face 5
property list uchar uint vertex_indices
end_header
-80.0 -80.0 -80.0 -0.894427 -0.000000 0.447214 255 0 0
0.0 -0.0 80.0 -0.894427 -0.000000 0.447214 255 0 0
-80.0 80.0 -80.0 -0.894427 -0.000000 0.447214 255 0 0
80.0 -80.0 -80.0 -0.000000 -0.894427 0.447214 255 0 0
0.0 -0.0 80.0 -0.000000 -0.894427 0.447214 255 0 0
-80.0 -80.0 -80.0 -0.000000 -0.894427 0.447214 255 0 0
0.0 -0.0 80.0 0.894427 -0.000000 0.447214 255 0 0
80.0 -80.0 -80.0 0.894427 -0.000000 0.447214 255 0 0
80.0 80.0 -80.0 0.894427 -0.000000 0.447214 255 0 0
-80.0 80.0 -80.0 -0.000000 0.894427 0.447214 255 0 0
0.0 -0.0 80.0 -0.000000 0.894427 0.447214 255 0 0
80.0 80.0 -80.0 -0.000000 0.894427 0.447214 255 0 0
80.0 80.0 -80.0 0.000000 0.000000 -1.000000 255 0 0
80.0 -80.0 -80.0 0.000000 0.000000 -1.000000 255 0 0
-80.0 -80.0 -80.0 0.000000 0.000000 -1.000000 255 0 0
-80.0 80.0 -80.0 0.000000 0.000000 -1.000000 255 0 0
3 0 1 2
3 3 4 5
3 6 7 8
3 9 10 11
4 12 13 14 15
