<?xml version="1.0" encoding="UTF-8" standalone="no"?>
<svg
   xmlns:dc="http://purl.org/dc/elements/1.1/"
   xmlns:cc="http://creativecommons.org/ns#"
   xmlns:rdf="http://www.w3.org/1999/02/22-rdf-syntax-ns#"
   xmlns:svg="http://www.w3.org/2000/svg"
   xmlns="http://www.w3.org/2000/svg"
   xmlns:sodipodi="http://sodipodi.sourceforge.net/DTD/sodipodi-0.dtd"
   xmlns:inkscape="http://www.inkscape.org/namespaces/inkscape"
   version="1.1"
   x="0px"
   y="0px"
   width="100px"
   height="100px"
   viewBox="0 0 100 100"
   enable-background="new 0 0 100 100"
   xml:space="preserve"
   id="svg2"
   inkscape:version="0.48.4 r9939"
   sodipodi:docname="noun_project_5493.svg"
   inkscape:export-filename="/home/bob/src/rig/rig-git-dev0/data/delete.png"
   inkscape:export-xdpi="21.6"
   inkscape:export-ydpi="21.6"><metadata
     id="metadata122"><rdf:RDF><cc:Work
         rdf:about=""><dc:format>image/svg+xml</dc:format><dc:type
           rdf:resource="http://purl.org/dc/dcmitype/StillImage" /><dc:title></dc:title></cc:Work></rdf:RDF></metadata><defs
     id="defs120" /><sodipodi:namedview
     pagecolor="#ffffff"
     bordercolor="#666666"
     borderopacity="1"
     objecttolerance="10"
     gridtolerance="10"
     guidetolerance="10"
     inkscape:pageopacity="0"
     inkscape:pageshadow="2"
     inkscape:window-width="1056"
     inkscape:window-height="599"
     id="namedview118"
     showgrid="false"
     inkscape:zoom="3.8231181"
     inkscape:cx="50"
     inkscape:cy="47.477335"
     inkscape:window-x="0"
     inkscape:window-y="27"
     inkscape:window-maximized="0"
     inkscape:current-layer="svg2" /><g
     id="Captions"><rect
       x="-192"
       width="185"
       height="99"
       id="rect5" /><rect
       y="-36"
       width="100"
       height="30"
       id="rect7" /><text
       transform="matrix(1 0 0 1 66 -19.5)"
       fill="#000000"
       font-family="'Helvetica'"
       font-size="2.4"
       id="text9">http://thenounproject.com</text>
<text
       transform="matrix(1 0 0 1 7.166 -24.5)"
       id="text11"><tspan
         x="0"
         y="0"
         fill="#000000"
         font-family="'Helvetica-Bold'"
         font-size="6.1578"
         id="tspan13">The Noun Project</tspan><tspan
         x="1.12"
         y="4.8"
         fill="#000000"
         font-family="'Helvetica-Bold'"
         font-size="4"
         id="tspan15">Icon Template</tspan></text>
<text
       transform="matrix(1 0 0 1 -178.5 10.5)"
       fill="#000000"
       font-family="'Helvetica-Bold'"
       font-size="6.1578"
       id="text17">Reminders</text>
<line
       fill="#000000"
       stroke="#FFFFFF"
       stroke-miterlimit="10"
       x1="8"
       y1="-14.5"
       x2="18"
       y2="-14.5"
       id="line19" /><line
       fill="#000000"
       stroke="#FFFFFF"
       stroke-miterlimit="10"
       x1="-179"
       y1="16.5"
       x2="-162"
       y2="16.5"
       id="line21" /><g
       id="g23"><g
         id="g25"><g
           id="g27"><rect
             x="-170.802"
             y="31.318"
             fill="#000000"
             width="8.721"
             height="8.642"
             id="rect29" /><path
             fill="#000000"
             d="M-164.455,42.312h4.747v-4.703h-4.747V42.312z M-159.266,42.749h-5.63V37.17h5.63V42.749      L-159.266,42.749z M-166.221,44.062h8.279v-8.203h-8.279V44.062L-166.221,44.062z M-157.5,44.5h-9.163v-9.079h9.163V44.5      L-157.5,44.5z"
             id="path31" /><polygon
             fill="#000000"
             points="-166.149,44.133 -166.292,43.991 -158.013,35.787 -157.871,35.929     "
             id="polygon33" /></g></g></g><rect
       x="-179"
       y="58"
       fill="none"
       width="35"
       height="32.5"
       id="rect35" /><text
       transform="matrix(1 0 0 1 -179 60.1572)"
       id="text37"><tspan
         x="0"
         y="0"
         fill="#000000"
         font-family="'Helvetica-Bold'"
         font-size="3"
         id="tspan39">Strokes</tspan><tspan
         x="0"
         y="5"
         fill="#000000"
         font-family="'Helvetica'"
         font-size="2.4"
         id="tspan41">Try to keep strokes at 4px</tspan><tspan
         x="0"
         y="10"
         fill="#000000"
         font-family="'Helvetica'"
         font-size="2.4"
         id="tspan43">Minimum stroke weight is 2px</tspan><tspan
         x="0"
         y="14.5"
         fill="#000000"
         font-family="'Helvetica'"
         font-size="2.4"
         id="tspan45">For thicker strokes use even </tspan><tspan
         x="0"
         y="17.5"
         fill="#000000"
         font-family="'Helvetica'"
         font-size="2.4"
         id="tspan47">numbers: 6px, 8px etc.</tspan><tspan
         x="0"
         y="22"
         fill="#000000"
         font-family="'Helvetica-Bold'"
         font-size="2.4"
         id="tspan49">Remember to expand strokes </tspan><tspan
         x="0"
         y="25"
         fill="#000000"
         font-family="'Helvetica-Bold'"
         font-size="2.4"
         id="tspan51">before saving as an SVG </tspan></text>
<rect
       x="-136.5"
       y="58"
       fill="none"
       width="35"
       height="32.5"
       id="rect53" /><text
       transform="matrix(1 0 0 1 -136.5 60.1572)"
       id="text55"><tspan
         x="0"
         y="0"
         fill="#000000"
         font-family="'Helvetica-Bold'"
         font-size="3"
         id="tspan57">Size</tspan><tspan
         x="0"
         y="5"
         fill="#000000"
         font-family="'Helvetica'"
         font-size="2.4"
         id="tspan59">Cannot be wider or taller than </tspan><tspan
         x="0"
         y="8.5"
         fill="#000000"
         font-family="'Helvetica'"
         font-size="2.4"
         id="tspan61">100px (artboar size)</tspan><tspan
         x="0"
         y="13.5"
         fill="#000000"
         font-family="'Helvetica'"
         font-size="2.4"
         id="tspan63">Scale your icon to fill as much of </tspan><tspan
         x="0"
         y="16.5"
         fill="#000000"
         font-family="'Helvetica'"
         font-size="2.4"
         id="tspan65">the Safe Area as possible (within </tspan><tspan
         x="0"
         y="19.5"
         fill="#000000"
         font-family="'Helvetica'"
         font-size="2.4"
         id="tspan67">the guides)</tspan></text>
<rect
       x="-94"
       y="58"
       fill="none"
       width="35"
       height="32.5"
       id="rect69" /><text
       transform="matrix(1 0 0 1 -94 60.1572)"
       id="text71"><tspan
         x="0"
         y="0"
         fill="#000000"
         font-family="'Helvetica-Bold'"
         font-size="3"
         id="tspan73">Ungroup</tspan><tspan
         x="0"
         y="5"
         fill="#000000"
         font-family="'Helvetica'"
         font-size="2.4"
         id="tspan75">If your design has more than one </tspan><tspan
         x="0"
         y="8"
         fill="#000000"
         font-family="'Helvetica'"
         font-size="2.4"
         id="tspan77">shape, make sure to ungroup.</tspan></text>
<rect
       x="-50"
       y="58"
       fill="none"
       width="35"
       height="32.5"
       id="rect79" /><text
       transform="matrix(1 0 0 1 -50 60.1572)"
       id="text81"><tspan
         x="0"
         y="0"
         fill="#000000"
         font-family="'Helvetica-Bold'"
         font-size="3"
         id="tspan83">Save as</tspan><tspan
         x="0"
         y="5"
         fill="#000000"
         font-family="'Helvetica'"
         font-size="2.4"
         id="tspan85">Save as .SVG and make sure </tspan><tspan
         x="0"
         y="8"
         fill="#000000"
         font-family="'Helvetica'"
         font-size="2.4"
         id="tspan87">“Use Artboards” is checked.</tspan></text>
<text
       transform="matrix(1.0074 0 0 1 -125.542 30.5933)"
       fill="#000000"
       font-family="'Helvetica'"
       font-size="2.5731"
       id="text89">100px</text>
<text
       transform="matrix(1.0074 0 0 1 -41 39)"
       fill="#000000"
       font-family="'Helvetica-Bold'"
       font-size="5.1462"
       id="text91">.SVG</text>
<rect
       x="-126.514"
       y="34.815"
       fill="#000000"
       width="10.261"
       height="10.185"
       id="rect93" /><rect
       x="-126.477"
       y="31.766"
       fill="#000000"
       width="0.522"
       height="2.337"
       id="rect95" /><rect
       x="-116.812"
       y="31.766"
       fill="#000000"
       width="0.523"
       height="2.337"
       id="rect97" /><rect
       x="-127"
       y="32.337"
       fill="#000000"
       width="11.233"
       height="0.572"
       id="rect99" /><g
       id="g101"><rect
         x="-83.805"
         y="33.844"
         fill="#000000"
         width="10.305"
         height="10.156"
         id="rect103" /><rect
         x="-76.809"
         y="28.707"
         fill="#000000"
         width="3.308"
         height="3.261"
         id="rect105" /></g><rect
       x="-178.5"
       y="22.5"
       fill="#000000"
       stroke="#FFFFFF"
       stroke-miterlimit="10"
       width="30"
       height="30"
       id="rect107" /><rect
       x="-136.5"
       y="22.5"
       fill="#000000"
       stroke="#FFFFFF"
       stroke-miterlimit="10"
       width="30"
       height="30"
       id="rect109" /><rect
       x="-93.5"
       y="22.5"
       fill="#000000"
       stroke="#FFFFFF"
       stroke-miterlimit="10"
       width="30"
       height="30"
       id="rect111" /><rect
       x="-49.5"
       y="22.5"
       fill="#000000"
       stroke="#FFFFFF"
       stroke-miterlimit="10"
       width="30"
       height="30"
       id="rect113" /></g><g
     id="Your_Icon"><path
       fill="#000000"
       d="M50,15c-19.33,0-35,15.67-35,35s15.67,35,35,35s35-15.67,35-35S69.33,15,50,15z M72.251,63.551   l-8.702,8.701l-13.552-13.55L36.452,72.248l-8.703-8.702l13.546-13.547L27.749,36.453l8.703-8.703l13.545,13.546l13.55-13.548   l8.704,8.703L58.7,50L72.251,63.551z"
       id="path116" /></g></svg>