<?xml version="1.0" encoding="UTF-8" standalone="no"?>
<svg
   xmlns:dc="http://purl.org/dc/elements/1.1/"
   xmlns:cc="http://creativecommons.org/ns#"
   xmlns:rdf="http://www.w3.org/1999/02/22-rdf-syntax-ns#"
   xmlns:svg="http://www.w3.org/2000/svg"
   xmlns="http://www.w3.org/2000/svg"
   xmlns:xlink="http://www.w3.org/1999/xlink"
   xmlns:sodipodi="http://sodipodi.sourceforge.net/DTD/sodipodi-0.dtd"
   xmlns:inkscape="http://www.inkscape.org/namespaces/inkscape"
   version="1.1"
   x="0px"
   y="0px"
   width="100px"
   height="100px"
   viewBox="0 0 100 100"
   enable-background="new 0 0 100 100"
   xml:space="preserve"
   id="svg2"
   inkscape:version="0.48.4 r9939"
   sodipodi:docname="entity.svg"
   inkscape:export-filename="/home/bob/src/rig/rig-git-dev0/data/entity.png"
   inkscape:export-xdpi="21.6"
   inkscape:export-ydpi="21.6"><metadata
     id="metadata24"><rdf:RDF><cc:Work
         rdf:about=""><dc:format>image/svg+xml</dc:format><dc:type
           rdf:resource="http://purl.org/dc/dcmitype/StillImage" /><dc:title></dc:title></cc:Work></rdf:RDF></metadata><defs
     id="defs22"><linearGradient
       id="linearGradient3788"><stop
         style="stop-color:#5a5a5a;stop-opacity:1;"
         offset="0"
         id="stop3790" /><stop
         style="stop-color:#666666;stop-opacity:1;"
         offset="1"
         id="stop3792" /></linearGradient><linearGradient
       inkscape:collect="always"
       xlink:href="#linearGradient3788"
       id="linearGradient3812"
       x1="50.070404"
       y1="7.6714473"
       x2="49.408085"
       y2="95.807037"
       gradientUnits="userSpaceOnUse" /></defs><sodipodi:namedview
     pagecolor="#ffffff"
     bordercolor="#666666"
     borderopacity="1"
     objecttolerance="10"
     gridtolerance="10"
     guidetolerance="10"
     inkscape:pageopacity="0"
     inkscape:pageshadow="2"
     inkscape:window-width="1000"
     inkscape:window-height="581"
     id="namedview20"
     showgrid="false"
     inkscape:zoom="3.835"
     inkscape:cx="50"
     inkscape:cy="46.610169"
     inkscape:window-x="0"
     inkscape:window-y="27"
     inkscape:window-maximized="0"
     inkscape:current-layer="svg2" /><g
     id="Captions" /><g
     id="Your_Icon"
     style="fill:url(#linearGradient3812);fill-opacity:1"><g
       id="g6"
       style="fill:url(#linearGradient3812);fill-opacity:1.0"><circle
         cx="50"
         cy="52"
         r="6"
         id="circle8"
         style="fill:url(#linearGradient3812);fill-opacity:1.0" /><path
         d="M50,12c7.732,0,14,17.908,14,40s-6.268,40-14,40S36,74.092,36,52S42.268,12,50,12 M50,8C38.183,8,32,30.135,32,52    s6.183,44,18,44s18-22.135,18-44S61.817,8,50,8L50,8z"
         id="path10"
         style="fill:url(#linearGradient3812);fill-opacity:1.0" /><path
         d="M24.385,25.934c7.985,0,20.98,5.423,33.828,14.728c17.892,12.96,28.719,28.54,24.182,34.803    c-1.278,1.766-3.644,2.602-6.779,2.602c-7.985,0-20.98-5.421-33.828-14.727c-17.891-12.96-28.719-28.54-24.182-34.803    C18.885,26.771,21.248,25.934,24.385,25.934 M24.385,21.934c-5.733,0-8.613,2.314-10.02,4.257    c-2.311,3.19-3.557,9.167,3.636,19.519c4.817,6.932,12.432,14.344,21.439,20.869c13.189,9.553,27.051,15.487,36.175,15.487    c5.733,0,8.613-2.313,10.019-4.255c2.312-3.191,3.558-9.168-3.635-19.52c-4.816-6.933-12.431-14.344-21.439-20.869    C47.369,27.868,33.508,21.934,24.385,21.934L24.385,21.934z"
         id="path12"
         style="fill:url(#linearGradient3812);fill-opacity:1.0" /><path
         d="M75.615,25.934c3.137,0,5.5,0.837,6.779,2.603c4.537,6.263-6.291,21.843-24.182,34.803    C45.365,72.645,32.37,78.065,24.385,78.065c-3.136,0-5.501-0.836-6.779-2.602c-4.537-6.263,6.29-21.843,24.182-34.803    C54.635,31.356,67.63,25.934,75.615,25.934 M75.615,21.934c-9.123,0-22.984,5.935-36.175,15.488    c-9.009,6.525-16.623,13.937-21.439,20.869c-7.192,10.352-5.946,16.328-3.635,19.52c1.405,1.941,4.285,4.255,10.019,4.255    c9.124,0,22.985-5.935,36.175-15.487c9.008-6.525,16.622-13.938,21.439-20.869c7.192-10.352,5.946-16.328,3.635-19.52    C84.229,24.248,81.349,21.934,75.615,21.934L75.615,21.934z"
         id="path14"
         style="fill:url(#linearGradient3812);fill-opacity:1.0" /><circle
         cx="82"
         cy="62"
         r="6"
         id="circle16"
         style="fill:url(#linearGradient3812);fill-opacity:1.0" /><circle
         cx="18"
         cy="42"
         r="6"
         id="circle18"
         style="fill:url(#linearGradient3812);fill-opacity:1.0" /></g></g></svg>