<?xml version="1.0" encoding="UTF-8" standalone="no"?>
<svg
   xmlns:dc="http://purl.org/dc/elements/1.1/"
   xmlns:cc="http://creativecommons.org/ns#"
   xmlns:rdf="http://www.w3.org/1999/02/22-rdf-syntax-ns#"
   xmlns:svg="http://www.w3.org/2000/svg"
   xmlns="http://www.w3.org/2000/svg"
   xmlns:sodipodi="http://sodipodi.sourceforge.net/DTD/sodipodi-0.dtd"
   xmlns:inkscape="http://www.inkscape.org/namespaces/inkscape"
   version="1.1"
   x="0px"
   y="0px"
   width="100px"
   height="100px"
   viewBox="-1 -18.982 100 100"
   overflow="visible"
   enable-background="new -1 -18.982 100 100"
   xml:space="preserve"
   id="svg2"
   inkscape:version="0.48.4 r9939"
   sodipodi:docname="noun_project_2307.svg"
   inkscape:export-filename="/home/bob/src/rig/rig-git-dev0/data/eye-white.png"
   inkscape:export-xdpi="21.6"
   inkscape:export-ydpi="21.6"><metadata
     id="metadata12"><rdf:RDF><cc:Work
         rdf:about=""><dc:format>image/svg+xml</dc:format><dc:type
           rdf:resource="http://purl.org/dc/dcmitype/StillImage" /><dc:title></dc:title></cc:Work></rdf:RDF></metadata><sodipodi:namedview
     pagecolor="#ffffff"
     bordercolor="#666666"
     borderopacity="1"
     objecttolerance="10"
     gridtolerance="10"
     guidetolerance="10"
     inkscape:pageopacity="0"
     inkscape:pageshadow="2"
     inkscape:window-width="1366"
     inkscape:window-height="710"
     id="namedview10"
     showgrid="false"
     inkscape:zoom="5.6958551"
     inkscape:cx="-8.5739806"
     inkscape:cy="48.59547"
     inkscape:window-x="0"
     inkscape:window-y="27"
     inkscape:window-maximized="1"
     inkscape:current-layer="svg2" /><defs
     id="defs4" /><path
     fill="#000000"
     d="M49,62.035c-26.167,0-46.674-27.814-47.535-28.999L0,31.018l1.465-2.019C2.326,27.814,22.833,0,49,0  c26.166,0,46.674,27.814,47.534,28.999L98,31.018l-1.466,2.019C95.674,34.221,75.166,62.035,49,62.035z M8.616,31.014  C13.669,37.151,30.117,55.166,49,55.166c18.928,0,35.339-18.006,40.386-24.145C84.331,24.883,67.885,6.869,49,6.869  C30.072,6.869,13.661,24.874,8.616,31.014z"
     id="path6"
     style="fill:#000000;fill-opacity:1" /><circle
     fill="#000000"
     cx="49"
     cy="31.018"
     r="18.997"
     id="circle8" /></svg>