ply
format ascii 1.0
comment Created by Blender 2.59 (sub 0) - www.blender.org, source file: 'light.blend'
element vertex 168
property float x
property float y
property float z
property float nx
property float ny
property float nz
property uchar red
property uchar green
property uchar blue
element face 96
property list uchar uint vertex_indices
end_header
1.000001 0.022150 0.000000 -0.657125 0.000000 0.753746 255 188 0
1.000000 0.022150 4.000000 -0.746178 0.000000 -0.665700 255 188 0
0.923879 0.404833 4.000000 -0.689383 -0.285531 -0.665700 255 188 0
0.923880 0.404833 0.000000 -0.607105 -0.251473 0.753746 255 188 0
0.707106 0.729256 4.000000 -0.527635 -0.527635 -0.665700 255 188 0
0.707107 0.729257 0.000000 -0.464644 -0.464644 0.753746 255 188 0
0.382683 0.946029 4.000000 -0.285531 -0.689383 -0.665700 255 188 0
0.382684 0.946029 0.000000 -0.251473 -0.607105 0.753746 255 188 0
-0.000000 1.022149 4.000000 0.000000 -0.746178 -0.665700 255 188 0
0.000000 1.022150 0.000000 0.000000 -0.657125 0.753746 255 188 0
-0.382684 0.946029 4.000000 0.285531 -0.689383 -0.665700 255 188 0
-0.382683 0.946029 0.000000 0.251473 -0.607105 0.753746 255 188 0
-0.707107 0.729256 4.000000 0.527635 -0.527635 -0.665700 255 188 0
-0.707106 0.729257 0.000000 0.464644 -0.464644 0.753746 255 188 0
-0.923879 0.404833 4.000000 0.689383 -0.285531 -0.665700 255 188 0
-0.923879 0.404833 0.000000 0.607105 -0.251473 0.753746 255 188 0
-1.000000 0.022150 4.000000 0.746178 0.000000 -0.665700 255 188 0
-1.000000 0.022150 -0.000000 0.657125 0.000000 0.753746 255 188 0
-0.923879 -0.360534 4.000000 0.689383 0.285531 -0.665700 255 188 0
-0.923879 -0.360534 -0.000000 0.607105 0.251473 0.753746 255 188 0
-0.707107 -0.684957 4.000000 0.527635 0.527635 -0.665700 255 188 0
-0.707106 -0.684957 -0.000000 0.464644 0.464644 0.753746 255 188 0
-0.382683 -0.901730 4.000000 0.285531 0.689383 -0.665700 255 188 0
-0.382683 -0.901730 0.000000 0.251473 0.607105 0.753746 255 188 0
-0.000000 -0.977850 4.000000 0.000000 0.746178 -0.665700 255 188 0
0.000000 -0.977850 0.000000 0.000000 0.657125 0.753746 255 188 0
0.382683 -0.901730 4.000000 -0.285531 0.689383 -0.665700 255 188 0
0.382684 -0.901730 0.000000 -0.251473 0.607105 0.753746 255 188 0
0.707107 -0.684957 4.000000 -0.527635 0.527635 -0.665700 255 188 0
0.707108 -0.684957 0.000000 -0.464644 0.464644 0.753746 255 188 0
0.923879 -0.360534 4.000000 -0.689383 0.285531 -0.665700 255 188 0
0.923880 -0.360534 0.000000 -0.607105 0.251473 0.753746 255 188 0
1.000001 0.022150 0.000000 -0.000000 -0.000000 1.000000 255 188 0
2.000000 0.022150 0.000001 -0.000000 -0.000000 1.000000 255 188 0
1.847759 0.787517 0.000001 -0.000000 -0.000000 1.000000 255 188 0
0.923880 0.404833 0.000000 -0.000000 -0.000000 1.000000 255 188 0
1.414214 1.436363 0.000001 -0.000000 -0.000000 1.000000 255 188 0
0.707107 0.729257 0.000000 -0.000000 -0.000000 1.000000 255 188 0
0.765367 1.869909 0.000001 -0.000000 -0.000000 1.000000 255 188 0
0.382684 0.946029 0.000000 -0.000000 -0.000000 1.000000 255 188 0
0.000000 2.022150 0.000000 -0.000000 -0.000000 1.000000 255 188 0
0.000000 1.022150 0.000000 -0.000000 -0.000000 1.000000 255 188 0
-0.765367 1.869909 0.000000 -0.000000 -0.000000 1.000000 255 188 0
-0.382683 0.946029 0.000000 -0.000000 -0.000000 1.000000 255 188 0
-1.414213 1.436363 0.000000 -0.000000 -0.000000 1.000000 255 188 0
-0.707106 0.729257 0.000000 -0.000000 -0.000000 1.000000 255 188 0
-1.847759 0.787516 0.000000 0.000000 -0.000000 1.000000 255 188 0
-0.923879 0.404833 0.000000 0.000000 -0.000000 1.000000 255 188 0
-2.000000 0.022150 0.000000 0.000000 -0.000000 1.000000 255 188 0
-1.000000 0.022150 -0.000000 0.000000 -0.000000 1.000000 255 188 0
-1.847759 -0.743217 0.000000 0.000000 0.000000 1.000000 255 188 0
-0.923879 -0.360534 -0.000000 0.000000 0.000000 1.000000 255 188 0
-1.414213 -1.392064 0.000000 0.000000 0.000000 1.000000 255 188 0
-0.707106 -0.684957 -0.000000 0.000000 0.000000 1.000000 255 188 0
-0.765366 -1.825610 0.000000 -0.000000 0.000000 1.000000 255 188 0
-0.382683 -0.901730 0.000000 -0.000000 0.000000 1.000000 255 188 0
0.000000 -1.977850 0.000000 -0.000000 0.000000 1.000000 255 188 0
0.000000 -0.977850 0.000000 -0.000000 0.000000 1.000000 255 188 0
0.765368 -1.825609 0.000000 -0.000000 0.000000 1.000000 255 188 0
0.382684 -0.901730 0.000000 -0.000000 0.000000 1.000000 255 188 0
1.414214 -1.392063 0.000001 -0.000000 0.000000 1.000000 255 188 0
0.707108 -0.684957 0.000000 -0.000000 0.000000 1.000000 255 188 0
1.847760 -0.743217 0.000001 -0.000000 0.000000 1.000000 255 188 0
0.923880 -0.360534 0.000000 -0.000000 0.000000 1.000000 255 188 0
1.000000 0.022150 4.000000 0.000000 0.000000 -1.000000 255 188 0
-0.000000 0.022150 4.000000 0.000000 0.000000 -1.000000 255 188 0
-0.000000 0.022150 4.000000 0.000000 0.000000 -1.000000 255 188 0
0.923879 0.404833 4.000000 0.000000 0.000000 -1.000000 255 188 0
-0.000000 0.022150 4.000000 0.000000 0.000000 -1.000000 255 188 0
0.707106 0.729256 4.000000 0.000000 0.000000 -1.000000 255 188 0
0.707106 0.729256 4.000000 0.000001 -0.000000 -1.000000 255 188 0
-0.000000 0.022150 4.000000 0.000001 -0.000000 -1.000000 255 188 0
-0.000000 0.022149 4.000000 0.000001 -0.000000 -1.000000 255 188 0
0.382683 0.946029 4.000000 0.000001 -0.000000 -1.000000 255 188 0
0.382683 0.946029 4.000000 0.000000 -0.000000 -1.000000 255 188 0
-0.000000 0.022149 4.000000 0.000000 -0.000000 -1.000000 255 188 0
-0.000000 0.022149 4.000000 0.000000 -0.000000 -1.000000 255 188 0
-0.000000 1.022149 4.000000 0.000000 -0.000000 -1.000000 255 188 0
-0.000000 0.022149 4.000000 0.000000 0.000000 -1.000000 255 188 0
-0.382684 0.946029 4.000000 0.000000 0.000000 -1.000000 255 188 0
-0.000000 0.022150 4.000000 0.000000 0.000000 -1.000000 255 188 0
-0.707107 0.729256 4.000000 0.000000 0.000000 -1.000000 255 188 0
-0.000000 0.022150 4.000000 0.000000 0.000000 -1.000000 255 188 0
-0.923879 0.404833 4.000000 0.000000 0.000000 -1.000000 255 188 0
-0.000000 0.022150 4.000000 0.000000 0.000000 -1.000000 255 188 0
-1.000000 0.022150 4.000000 0.000000 0.000000 -1.000000 255 188 0
-0.000000 0.022150 4.000000 0.000000 0.000000 -1.000000 255 188 0
-0.923879 -0.360534 4.000000 0.000000 0.000000 -1.000000 255 188 0
-0.000000 0.022150 4.000000 -0.000000 0.000000 -1.000000 255 188 0
-0.707107 -0.684957 4.000000 -0.000000 0.000000 -1.000000 255 188 0
-0.000000 0.022150 4.000000 -0.000000 0.000000 -1.000000 255 188 0
-0.382683 -0.901730 4.000000 -0.000000 0.000000 -1.000000 255 188 0
-0.000000 0.022150 4.000000 -0.000000 0.000000 -1.000000 255 188 0
-0.000000 -0.977850 4.000000 -0.000000 0.000000 -1.000000 255 188 0
-0.000000 0.022150 4.000000 -0.000000 -0.000000 -1.000000 255 188 0
0.382683 -0.901730 4.000000 -0.000000 -0.000000 -1.000000 255 188 0
-0.000000 0.022150 4.000000 -0.000000 -0.000000 -1.000000 255 188 0
0.707107 -0.684957 4.000000 -0.000000 -0.000000 -1.000000 255 188 0
0.707107 -0.684957 4.000000 0.000001 0.000001 -1.000000 255 188 0
-0.000000 0.022150 4.000000 0.000001 0.000001 -1.000000 255 188 0
-0.000000 0.022150 4.000000 0.000001 0.000001 -1.000000 255 188 0
0.923879 -0.360534 4.000000 0.000001 0.000001 -1.000000 255 188 0
0.923879 -0.360534 4.000000 0.000000 -0.000000 -1.000000 255 188 0
-0.000000 0.022150 4.000000 0.000000 -0.000000 -1.000000 255 188 0
-0.000000 0.022150 4.000000 0.000000 -1.000000 0.000000 255 188 0
0.000001 0.022150 -0.000000 0.000000 -1.000000 0.000000 255 188 0
0.000001 0.022150 -0.000000 -0.279977 -0.959990 0.000000 255 188 0
-0.000000 0.022150 4.000000 0.000000 -0.707083 -0.707083 255 188 0
0.000001 0.022150 -0.000000 -0.636891 -0.770928 0.000000 255 188 0
-0.000000 0.022150 4.000000 -0.308847 -0.334910 -0.890164 255 188 0
0.000000 0.022150 -0.000000 -0.307810 -0.951445 0.000000 255 188 0
-0.000000 0.022149 4.000000 -0.537950 -0.583361 -0.608478 255 188 0
0.000000 0.022150 -0.000000 0.000000 -1.000000 0.000000 255 188 0
-0.000000 0.022149 4.000000 0.000000 -0.707083 -0.707083 255 188 0
0.000000 0.022150 -0.000000 0.307810 -0.951445 0.000000 255 188 0
-0.000000 0.022149 4.000000 0.537950 -0.583361 -0.608478 255 188 0
0.000000 0.022150 -0.000000 0.636891 -0.770928 0.000000 255 188 0
-0.000000 0.022150 4.000000 0.308847 -0.334910 -0.890164 255 188 0
0.000000 0.022150 -0.000000 0.279977 -0.959990 0.000000 255 188 0
-0.000000 0.022150 4.000000 0.000000 -0.707083 -0.707083 255 188 0
0.000000 0.022150 -0.000000 0.000000 -1.000000 0.000000 255 188 0
-0.000000 0.022150 4.000000 0.000000 1.000000 0.000000 255 188 0
0.000000 0.022150 -0.000000 0.279977 0.959990 0.000000 255 188 0
-0.000000 0.022150 4.000000 0.000000 0.707083 -0.707083 255 188 0
0.000000 0.022150 -0.000000 0.636891 0.770928 0.000000 255 188 0
-0.000000 0.022150 4.000000 0.308847 0.334910 -0.890164 255 188 0
0.000000 0.022150 -0.000000 0.307810 0.951445 0.000000 255 188 0
-0.000000 0.022150 4.000000 0.537950 0.583361 -0.608478 255 188 0
0.000000 0.022150 -0.000000 0.000000 1.000000 0.000000 255 188 0
-0.000000 0.022150 4.000000 0.000000 0.707083 -0.707083 255 188 0
0.000000 0.022150 -0.000000 -0.307810 0.951445 0.000000 255 188 0
-0.000000 0.022150 4.000000 -0.537950 0.583361 -0.608478 255 188 0
0.000001 0.022150 -0.000000 -0.636891 0.770928 0.000000 255 188 0
-0.000000 0.022150 4.000000 -0.308847 0.334910 -0.890164 255 188 0
0.000001 0.022150 -0.000000 -0.279977 0.959990 0.000000 255 188 0
-0.000000 0.022150 4.000000 0.000000 0.707083 -0.707083 255 188 0
0.000001 0.022150 -2.000000 0.707083 0.000000 -0.707083 255 188 0
0.000001 0.022150 -2.000000 -0.022248 -0.635182 -0.772027 255 188 0
0.000001 0.022150 -2.000000 0.170232 0.000885 -0.985382 255 188 0
0.000001 0.022150 -2.000000 0.300211 -0.420362 -0.856227 255 188 0
0.000001 0.022150 -2.000000 0.000000 -0.393567 -0.919279 255 188 0
0.000001 0.022150 -2.000000 -0.300211 -0.420362 -0.856227 255 188 0
0.000001 0.022150 -2.000000 -0.170232 0.000885 -0.985382 255 188 0
0.000001 0.022150 -2.000000 0.022248 -0.635182 -0.772027 255 188 0
0.000001 0.022150 -2.000000 -0.707083 0.000000 -0.707083 255 188 0
0.000001 0.022150 -2.000000 0.022248 0.635182 -0.772027 255 188 0
0.000001 0.022150 -2.000000 -0.170232 -0.000885 -0.985382 255 188 0
0.000001 0.022150 -2.000000 -0.300211 0.420362 -0.856227 255 188 0
0.000001 0.022150 -2.000000 0.000000 0.393567 -0.919279 255 188 0
0.000001 0.022150 -2.000000 0.300211 0.420362 -0.856227 255 188 0
0.000001 0.022150 -2.000000 0.170232 -0.000885 -0.985382 255 188 0
0.000001 0.022150 -2.000000 -0.022248 0.635182 -0.772027 255 188 0
2.000000 0.022150 0.000001 0.937742 0.000000 0.347270 255 188 0
1.847759 0.787517 0.000001 0.866359 0.358837 0.347270 255 188 0
1.414214 1.436363 0.000001 0.663076 0.663076 0.347270 255 188 0
0.765367 1.869909 0.000001 0.358837 0.866359 0.347270 255 188 0
0.000000 2.022150 0.000000 0.000000 0.937742 0.347270 255 188 0
-0.765367 1.869909 0.000000 -0.358837 0.866359 0.347270 255 188 0
-1.414213 1.436363 0.000000 -0.663076 0.663076 0.347270 255 188 0
-1.847759 0.787516 0.000000 -0.866359 0.358837 0.347270 255 188 0
-2.000000 0.022150 0.000000 -0.937742 0.000000 0.347270 255 188 0
-1.847759 -0.743217 0.000000 -0.866359 -0.358837 0.347270 255 188 0
-1.414213 -1.392064 0.000000 -0.663076 -0.663076 0.347270 255 188 0
-0.765366 -1.825610 0.000000 -0.358837 -0.866359 0.347270 255 188 0
0.000000 -1.977850 0.000000 0.000000 -0.937742 0.347270 255 188 0
0.765368 -1.825609 0.000000 0.358837 -0.866359 0.347270 255 188 0
1.414214 -1.392063 0.000001 0.663076 -0.663076 0.347270 255 188 0
1.847760 -0.743217 0.000001 0.866359 -0.358837 0.347270 255 188 0
4 0 1 2 3
4 3 2 4 5
4 5 4 6 7
4 7 6 8 9
4 9 8 10 11
4 11 10 12 13
4 13 12 14 15
4 15 14 16 17
4 17 16 18 19
4 19 18 20 21
4 21 20 22 23
4 23 22 24 25
4 25 24 26 27
4 27 26 28 29
4 29 28 30 31
4 1 0 31 30
4 32 33 34 35
4 35 34 36 37
4 37 36 38 39
4 39 38 40 41
4 41 40 42 43
4 43 42 44 45
4 45 44 46 47
4 47 46 48 49
4 49 48 50 51
4 51 50 52 53
4 53 52 54 55
4 55 54 56 57
4 57 56 58 59
4 59 58 60 61
4 61 60 62 63
4 33 32 63 62
4 64 65 66 67
4 67 66 68 69
4 70 71 72 73
4 74 75 76 77
4 77 76 78 79
4 79 78 80 81
4 81 80 82 83
4 83 82 84 85
4 85 84 86 87
4 87 86 88 89
4 89 88 90 91
4 91 90 92 93
4 93 92 94 95
4 95 94 96 97
4 98 99 100 101
4 102 103 65 64
4 104 105 106 107
4 107 106 108 109
4 109 108 110 111
4 111 110 112 113
4 113 112 114 115
4 115 114 116 117
4 117 116 118 119
4 119 118 120 121
4 121 120 122 123
4 123 122 124 125
4 125 124 126 127
4 127 126 128 129
4 129 128 130 131
4 131 130 132 133
4 133 132 134 135
4 135 134 105 104
4 136 105 106 137
4 137 106 108 138
4 138 108 110 139
4 139 110 112 140
4 140 112 114 141
4 141 114 116 142
4 142 116 118 143
4 143 118 120 144
4 144 120 122 145
4 145 122 124 146
4 146 124 126 147
4 147 126 128 148
4 148 128 130 149
4 149 130 132 150
4 150 132 134 151
4 151 134 105 136
4 152 136 137 153
4 153 137 138 154
4 154 138 139 155
4 155 139 140 156
4 156 140 141 157
4 157 141 142 158
4 158 142 143 159
4 159 143 144 160
4 160 144 145 161
4 161 145 146 162
4 162 146 147 163
4 163 147 148 164
4 164 148 149 165
4 165 149 150 166
4 166 150 151 167
4 167 151 136 152
