ply
format ascii 1.0
comment Created by Blender 2.65 (sub 0) - www.blender.org, source file: ''
element vertex 280
property float x
property float y
property float z
property float nx
property float ny
property float nz
property uchar red
property uchar green
property uchar blue
element face 96
property list uchar uint vertex_indices
end_header
0.204052 0.004520 0.000000 -0.980785 -0.195092 -0.000000 254 187 0
0.204051 0.004520 0.816206 -0.980785 -0.195092 -0.000000 254 187 0
0.188519 0.082607 0.816206 -0.980785 -0.195092 -0.000000 254 187 0
0.188519 0.082607 0.000000 -0.980785 -0.195092 -0.000000 254 187 0
0.188519 0.082607 0.000000 -0.831469 -0.555570 -0.000000 254 187 0
0.188519 0.082607 0.816206 -0.831469 -0.555570 -0.000000 254 187 0
0.144286 0.148806 0.816206 -0.831469 -0.555570 -0.000000 254 187 0
0.144286 0.148806 0.000000 -0.831469 -0.555570 -0.000000 254 187 0
0.144286 0.148806 0.000000 -0.555570 -0.831470 -0.000000 254 187 0
0.144286 0.148806 0.816206 -0.555570 -0.831470 -0.000000 254 187 0
0.078087 0.193039 0.816206 -0.555570 -0.831470 -0.000000 254 187 0
0.078087 0.193039 0.000000 -0.555570 -0.831470 -0.000000 254 187 0
0.078087 0.193039 0.000000 -0.195090 -0.980785 -0.000000 254 187 0
0.078087 0.193039 0.816206 -0.195090 -0.980785 -0.000000 254 187 0
0.000000 0.208571 0.816206 -0.195090 -0.980785 -0.000000 254 187 0
0.000000 0.208571 0.000000 -0.195090 -0.980785 -0.000000 254 187 0
0.000000 0.208571 0.000000 0.195090 -0.980785 -0.000000 254 187 0
0.000000 0.208571 0.816206 0.195090 -0.980785 -0.000000 254 187 0
-0.078087 0.193039 0.816206 0.195090 -0.980785 -0.000000 254 187 0
-0.078087 0.193039 0.000000 0.195090 -0.980785 -0.000000 254 187 0
-0.078087 0.193039 0.000000 0.555570 -0.831470 0.000000 254 187 0
-0.078087 0.193039 0.816206 0.555570 -0.831470 0.000000 254 187 0
-0.144286 0.148806 0.816206 0.555570 -0.831470 0.000000 254 187 0
-0.144286 0.148806 0.000000 0.555570 -0.831470 0.000000 254 187 0
-0.144286 0.148806 0.000000 0.831470 -0.555570 0.000000 254 187 0
-0.144286 0.148806 0.816206 0.831470 -0.555570 0.000000 254 187 0
-0.188519 0.082607 0.816206 0.831470 -0.555570 0.000000 254 187 0
-0.188519 0.082607 0.000000 0.831470 -0.555570 0.000000 254 187 0
-0.188519 0.082607 0.000000 0.980785 -0.195092 0.000000 254 187 0
-0.188519 0.082607 0.816206 0.980785 -0.195092 0.000000 254 187 0
-0.204051 0.004520 0.816206 0.980785 -0.195092 0.000000 254 187 0
-0.204051 0.004520 0.000000 0.980785 -0.195092 0.000000 254 187 0
-0.204051 0.004520 0.000000 0.980785 0.195091 0.000000 254 187 0
-0.204051 0.004520 0.816206 0.980785 0.195091 0.000000 254 187 0
-0.188519 -0.073568 0.816206 0.980785 0.195091 0.000000 254 187 0
-0.188519 -0.073568 0.000000 0.980785 0.195091 0.000000 254 187 0
-0.188519 -0.073568 0.000000 0.831470 0.555570 0.000000 254 187 0
-0.188519 -0.073568 0.816206 0.831470 0.555570 0.000000 254 187 0
-0.144286 -0.139766 0.816206 0.831470 0.555570 0.000000 254 187 0
-0.144286 -0.139766 0.000000 0.831470 0.555570 0.000000 254 187 0
-0.144286 -0.139766 0.000000 0.555571 0.831469 0.000000 254 187 0
-0.144286 -0.139766 0.816206 0.555571 0.831469 0.000000 254 187 0
-0.078087 -0.183999 0.816206 0.555571 0.831469 0.000000 254 187 0
-0.078087 -0.183999 0.000000 0.555571 0.831469 0.000000 254 187 0
-0.078087 -0.183999 0.000000 0.195089 0.980785 0.000000 254 187 0
-0.078087 -0.183999 0.816206 0.195089 0.980785 0.000000 254 187 0
0.000000 -0.199532 0.816206 0.195089 0.980785 0.000000 254 187 0
0.000000 -0.199532 0.000000 0.195089 0.980785 0.000000 254 187 0
0.000000 -0.199532 0.000000 -0.195089 0.980785 -0.000000 254 187 0
0.000000 -0.199532 0.816206 -0.195089 0.980785 -0.000000 254 187 0
0.078087 -0.183999 0.816206 -0.195089 0.980785 -0.000000 254 187 0
0.078087 -0.183999 0.000000 -0.195089 0.980785 -0.000000 254 187 0
0.078087 -0.183999 0.000000 -0.555570 0.831470 -0.000000 254 187 0
0.078087 -0.183999 0.816206 -0.555570 0.831470 -0.000000 254 187 0
0.144286 -0.139766 0.816206 -0.555570 0.831470 -0.000000 254 187 0
0.144286 -0.139766 0.000000 -0.555570 0.831470 -0.000000 254 187 0
0.144286 -0.139766 0.000000 -0.831470 0.555569 -0.000000 254 187 0
0.144286 -0.139766 0.816206 -0.831470 0.555569 -0.000000 254 187 0
0.188519 -0.073568 0.816206 -0.831470 0.555569 -0.000000 254 187 0
0.188519 -0.073568 0.000000 -0.831470 0.555569 -0.000000 254 187 0
0.204051 0.004520 0.816206 -0.980785 0.195091 -0.000000 254 187 0
0.204052 0.004520 0.000000 -0.980785 0.195091 -0.000000 254 187 0
0.188519 -0.073568 0.000000 -0.980785 0.195091 -0.000000 254 187 0
0.188519 -0.073568 0.816206 -0.980785 0.195091 -0.000000 254 187 0
0.204052 0.004520 0.000000 -0.000001 -0.000000 1.000000 254 187 0
0.408103 0.004520 0.000000 -0.000001 -0.000000 1.000000 254 187 0
0.377038 0.160694 0.000000 -0.000001 -0.000000 1.000000 254 187 0
0.188519 0.082607 0.000000 -0.000001 -0.000000 1.000000 254 187 0
0.188519 0.082607 0.000000 -0.000001 -0.000001 1.000000 254 187 0
0.377038 0.160694 0.000000 -0.000001 -0.000001 1.000000 254 187 0
0.288572 0.293092 0.000000 -0.000001 -0.000001 1.000000 254 187 0
0.144286 0.148806 0.000000 -0.000001 -0.000001 1.000000 254 187 0
0.156174 0.381558 0.000000 -0.000001 -0.000001 1.000000 254 187 0
0.078087 0.193039 0.000000 -0.000001 -0.000001 1.000000 254 187 0
0.078087 0.193039 0.000000 -0.000001 -0.000000 1.000000 254 187 0
0.156174 0.381558 0.000000 -0.000001 -0.000000 1.000000 254 187 0
0.000000 0.412623 0.000000 -0.000001 -0.000000 1.000000 254 187 0
0.000000 0.208571 0.000000 -0.000001 -0.000000 1.000000 254 187 0
0.000000 0.208571 0.000000 -0.000000 0.000000 1.000000 254 187 0
0.000000 0.412623 0.000000 -0.000000 0.000000 1.000000 254 187 0
-0.156174 0.381558 0.000000 -0.000000 0.000000 1.000000 254 187 0
-0.078087 0.193039 0.000000 -0.000000 0.000000 1.000000 254 187 0
-0.288572 0.293092 0.000000 -0.000000 -0.000000 1.000000 254 187 0
-0.144286 0.148806 0.000000 -0.000000 -0.000000 1.000000 254 187 0
-0.377038 0.160694 0.000000 -0.000000 -0.000000 1.000000 254 187 0
-0.188519 0.082607 0.000000 -0.000000 -0.000000 1.000000 254 187 0
-0.408103 0.004520 0.000000 0.000000 -0.000000 1.000000 254 187 0
-0.204051 0.004520 0.000000 0.000000 -0.000000 1.000000 254 187 0
-0.377038 -0.151655 0.000000 0.000000 -0.000000 1.000000 254 187 0
-0.188519 -0.073568 0.000000 0.000000 -0.000000 1.000000 254 187 0
-0.288572 -0.284053 0.000000 0.000000 -0.000000 1.000000 254 187 0
-0.144286 -0.139766 0.000000 0.000000 -0.000000 1.000000 254 187 0
-0.156174 -0.372518 0.000000 0.000000 -0.000000 1.000000 254 187 0
-0.078087 -0.183999 0.000000 0.000000 -0.000000 1.000000 254 187 0
0.000000 -0.403583 0.000000 0.000000 0.000000 1.000000 254 187 0
0.000000 -0.199532 0.000000 0.000000 0.000000 1.000000 254 187 0
0.156174 -0.372518 0.000000 0.000000 0.000000 1.000000 254 187 0
0.078087 -0.183999 0.000000 0.000000 0.000000 1.000000 254 187 0
0.078087 -0.183999 0.000000 -0.000001 -0.000000 1.000000 254 187 0
0.156174 -0.372518 0.000000 -0.000001 -0.000000 1.000000 254 187 0
0.288572 -0.284053 0.000000 -0.000001 -0.000000 1.000000 254 187 0
0.144286 -0.139766 0.000000 -0.000001 -0.000000 1.000000 254 187 0
0.144286 -0.139766 0.000000 -0.000001 0.000001 1.000000 254 187 0
0.288572 -0.284053 0.000000 -0.000001 0.000001 1.000000 254 187 0
0.377038 -0.151655 0.000000 -0.000001 0.000001 1.000000 254 187 0
0.188519 -0.073568 0.000000 -0.000001 0.000001 1.000000 254 187 0
0.188519 -0.073568 0.000000 -0.000001 0.000000 1.000000 254 187 0
0.377038 -0.151655 0.000000 -0.000001 0.000000 1.000000 254 187 0
0.204051 0.004520 0.816206 0.000000 -0.000000 -1.000000 254 187 0
0.000000 0.004520 0.816206 0.000000 -0.000000 -1.000000 254 187 0
0.000000 0.004520 0.816206 0.000000 -0.000000 -1.000000 254 187 0
0.188519 0.082607 0.816206 0.000000 -0.000000 -1.000000 254 187 0
0.000000 0.004520 0.816206 0.000000 -0.000000 -1.000000 254 187 0
0.144286 0.148806 0.816206 0.000000 -0.000000 -1.000000 254 187 0
0.144286 0.148806 0.816206 0.000000 -0.000000 -1.000000 254 187 0
0.000000 0.004520 0.816206 0.000000 -0.000000 -1.000000 254 187 0
0.000000 0.004520 0.816206 0.000000 -0.000000 -1.000000 254 187 0
0.078087 0.193039 0.816206 0.000000 -0.000000 -1.000000 254 187 0
0.078087 0.193039 0.816206 0.000000 0.000000 -1.000000 254 187 0
0.000000 0.004520 0.816206 0.000000 0.000000 -1.000000 254 187 0
0.000000 0.004520 0.816206 0.000000 0.000000 -1.000000 254 187 0
0.000000 0.208571 0.816206 0.000000 0.000000 -1.000000 254 187 0
0.000000 0.004520 0.816206 0.000000 0.000000 -1.000000 254 187 0
-0.078087 0.193039 0.816206 0.000000 0.000000 -1.000000 254 187 0
0.000000 0.004520 0.816206 0.000000 0.000000 -1.000000 254 187 0
-0.144286 0.148806 0.816206 0.000000 0.000000 -1.000000 254 187 0
0.000000 0.004520 0.816206 0.000000 0.000000 -1.000000 254 187 0
-0.188519 0.082607 0.816206 0.000000 0.000000 -1.000000 254 187 0
0.000000 0.004520 0.816206 0.000000 0.000000 -1.000000 254 187 0
-0.204051 0.004520 0.816206 0.000000 0.000000 -1.000000 254 187 0
0.000000 0.004520 0.816206 0.000000 0.000000 -1.000000 254 187 0
-0.188519 -0.073568 0.816206 0.000000 0.000000 -1.000000 254 187 0
0.000000 0.004520 0.816206 -0.000000 0.000000 -1.000000 254 187 0
-0.144286 -0.139766 0.816206 -0.000000 0.000000 -1.000000 254 187 0
0.000000 0.004520 0.816206 -0.000000 0.000000 -1.000000 254 187 0
-0.078087 -0.183999 0.816206 -0.000000 0.000000 -1.000000 254 187 0
0.000000 0.004520 0.816206 -0.000000 0.000000 -1.000000 254 187 0
0.000000 -0.199532 0.816206 -0.000000 0.000000 -1.000000 254 187 0
0.000000 0.004520 0.816206 -0.000000 -0.000000 -1.000000 254 187 0
0.078087 -0.183999 0.816206 -0.000000 -0.000000 -1.000000 254 187 0
0.000000 0.004520 0.816206 -0.000000 -0.000000 -1.000000 254 187 0
0.144286 -0.139766 0.816206 -0.000000 -0.000000 -1.000000 254 187 0
0.144286 -0.139766 0.816206 -0.000000 -0.000000 -1.000000 254 187 0
0.000000 0.004520 0.816206 -0.000000 -0.000000 -1.000000 254 187 0
0.000000 0.004520 0.816206 -0.000000 -0.000000 -1.000000 254 187 0
0.188519 -0.073568 0.816206 -0.000000 -0.000000 -1.000000 254 187 0
0.188519 -0.073568 0.816206 -0.000000 -0.000000 -1.000000 254 187 0
0.000000 0.004520 0.816206 -0.000000 -0.000000 -1.000000 254 187 0
0.000000 0.004520 0.816206 0.000000 0.000000 0.000000 254 187 0
0.000000 0.004520 0.000000 0.000000 0.000000 0.000000 254 187 0
0.000000 0.004520 0.000000 0.000000 0.000000 0.000000 254 187 0
0.000000 0.004520 0.816206 0.000000 0.000000 0.000000 254 187 0
0.000000 0.004520 0.000000 0.000000 0.000000 0.000000 254 187 0
0.000000 0.004520 0.816206 0.000000 0.000000 0.000000 254 187 0
0.000000 0.004520 0.816206 -0.706948 0.707266 0.000000 254 187 0
0.000000 0.004520 0.000000 -0.706948 0.707266 0.000000 254 187 0
0.000000 0.004520 0.000000 -0.706948 0.707266 0.000000 254 187 0
0.000000 0.004520 0.816206 -0.706948 0.707266 0.000000 254 187 0
0.000000 0.004520 0.816206 0.000000 0.000000 0.000000 254 187 0
0.000000 0.004520 0.000000 0.000000 0.000000 0.000000 254 187 0
0.000000 0.004520 0.000000 0.000000 0.000000 0.000000 254 187 0
0.000000 0.004520 0.816206 0.000000 0.000000 0.000000 254 187 0
0.000000 0.004520 0.000000 0.000000 0.000000 0.000000 254 187 0
0.000000 0.004520 0.816206 0.000000 0.000000 0.000000 254 187 0
0.000000 0.004520 0.816206 1.000000 0.000000 0.000000 254 187 0
0.000000 0.004520 0.000000 1.000000 0.000000 0.000000 254 187 0
0.000000 0.004520 0.000000 1.000000 0.000000 0.000000 254 187 0
0.000000 0.004520 0.816206 1.000000 0.000000 0.000000 254 187 0
0.000000 0.004520 0.816206 0.000000 0.000000 0.000000 254 187 0
0.000000 0.004520 0.000000 0.000000 0.000000 0.000000 254 187 0
0.000000 0.004520 0.000000 0.000000 0.000000 0.000000 254 187 0
0.000000 0.004520 0.816206 0.000000 0.000000 0.000000 254 187 0
0.000000 0.004520 0.000000 0.000000 0.000000 0.000000 254 187 0
0.000000 0.004520 0.816206 0.000000 0.000000 0.000000 254 187 0
0.000000 0.004520 0.000000 0.000000 0.000000 0.000000 254 187 0
0.000000 0.004520 0.816206 0.000000 0.000000 0.000000 254 187 0
0.000000 0.004520 0.000000 0.000000 0.000000 0.000000 254 187 0
0.000000 0.004520 0.816206 0.000000 0.000000 0.000000 254 187 0
0.000000 0.004520 0.000000 0.000000 0.000000 0.000000 254 187 0
0.000000 0.004520 0.816206 0.000000 0.000000 0.000000 254 187 0
0.000000 0.004520 0.000000 0.000000 0.000000 0.000000 254 187 0
0.000000 0.004520 0.816206 0.000000 0.000000 0.000000 254 187 0
0.000000 0.004520 0.000000 0.000000 0.000000 0.000000 254 187 0
0.000000 0.004520 0.816206 0.000000 0.000000 0.000000 254 187 0
0.000000 0.004520 0.816206 -0.000000 -1.000000 -0.000000 254 187 0
0.000000 0.004520 0.000000 -0.000000 -1.000000 -0.000000 254 187 0
0.000000 0.004520 0.000000 -0.000000 -1.000000 -0.000000 254 187 0
0.000000 0.004520 0.816206 -0.000000 -1.000000 -0.000000 254 187 0
0.000000 0.004520 0.816206 0.000000 0.000000 0.000000 254 187 0
0.000000 0.004520 0.000000 0.000000 0.000000 0.000000 254 187 0
0.000000 0.004520 0.000000 0.000000 0.000000 0.000000 254 187 0
0.000000 0.004520 0.816206 0.000000 0.000000 0.000000 254 187 0
0.000000 0.004520 -0.408103 0.000000 0.000000 0.000000 254 187 0
0.000000 0.004520 -0.408103 0.000000 0.000000 0.000000 254 187 0
0.000000 0.004520 -0.408103 0.000000 0.000000 0.000000 254 187 0
0.000000 0.004520 -0.408103 0.000000 -1.000000 0.000000 254 187 0
0.000000 0.004520 0.000000 0.000000 -1.000000 0.000000 254 187 0
0.000000 0.004520 0.000000 0.000000 -1.000000 0.000000 254 187 0
0.000000 0.004520 -0.408103 0.000000 -1.000000 0.000000 254 187 0
0.000000 0.004520 -0.408103 0.000000 0.000000 0.000000 254 187 0
0.000000 0.004520 -0.408103 0.000000 0.000000 0.000000 254 187 0
0.000000 0.004520 -0.408103 0.000000 0.000000 0.000000 254 187 0
0.000000 0.004520 -0.408103 0.000000 0.000000 0.000000 254 187 0
0.000000 0.004520 -0.408103 0.000000 0.000000 0.000000 254 187 0
0.000000 0.004520 -0.408103 0.000000 0.000000 0.000000 254 187 0
0.000000 0.004520 -0.408103 0.000000 0.000000 0.000000 254 187 0
0.000000 0.004520 -0.408103 0.000000 0.000000 0.000000 254 187 0
0.000000 0.004520 -0.408103 0.000000 0.000000 0.000000 254 187 0
0.000000 0.004520 -0.408103 0.000000 0.000000 0.000000 254 187 0
0.000000 0.004520 -0.408103 0.000000 0.000000 0.000000 254 187 0
0.000000 0.004520 -0.408103 0.000000 1.000000 0.000000 254 187 0
0.000000 0.004520 0.000000 0.000000 1.000000 0.000000 254 187 0
0.000000 0.004520 0.000000 0.000000 1.000000 0.000000 254 187 0
0.000000 0.004520 -0.408103 0.000000 1.000000 0.000000 254 187 0
0.000000 0.004520 -0.408103 0.000000 0.000000 0.000000 254 187 0
0.000000 0.004520 -0.408103 0.000000 0.000000 0.000000 254 187 0
0.408103 0.004520 0.000000 0.700215 0.139281 -0.700214 254 187 0
0.000000 0.004520 -0.408103 0.700215 0.139281 -0.700214 254 187 0
0.000000 0.004520 -0.408103 0.700215 0.139281 -0.700214 254 187 0
0.377038 0.160694 0.000000 0.700215 0.139281 -0.700214 254 187 0
0.377038 0.160694 0.000000 0.593613 0.396640 -0.700214 254 187 0
0.000000 0.004520 -0.408103 0.593613 0.396640 -0.700214 254 187 0
0.000000 0.004520 -0.408103 0.593613 0.396640 -0.700214 254 187 0
0.288572 0.293092 0.000000 0.593613 0.396640 -0.700214 254 187 0
0.288572 0.293092 0.000000 0.396640 0.593613 -0.700214 254 187 0
0.000000 0.004520 -0.408103 0.396640 0.593613 -0.700214 254 187 0
0.000000 0.004520 -0.408103 0.396640 0.593613 -0.700214 254 187 0
0.156174 0.381558 0.000000 0.396640 0.593613 -0.700214 254 187 0
0.156174 0.381558 0.000000 0.139282 0.700214 -0.700214 254 187 0
0.000000 0.004520 -0.408103 0.139282 0.700214 -0.700214 254 187 0
0.000000 0.004520 -0.408103 0.139282 0.700214 -0.700214 254 187 0
0.000000 0.412623 0.000000 0.139282 0.700214 -0.700214 254 187 0
0.000000 0.412623 0.000000 -0.139281 0.700214 -0.700215 254 187 0
0.000000 0.004520 -0.408103 -0.139281 0.700214 -0.700215 254 187 0
0.000000 0.004520 -0.408103 -0.139281 0.700214 -0.700215 254 187 0
-0.156174 0.381558 0.000000 -0.139281 0.700214 -0.700215 254 187 0
-0.156174 0.381558 0.000000 -0.396640 0.593613 -0.700215 254 187 0
0.000000 0.004520 -0.408103 -0.396640 0.593613 -0.700215 254 187 0
0.000000 0.004520 -0.408103 -0.396640 0.593613 -0.700215 254 187 0
-0.288572 0.293092 0.000000 -0.396640 0.593613 -0.700215 254 187 0
-0.288572 0.293092 0.000000 -0.593613 0.396640 -0.700215 254 187 0
0.000000 0.004520 -0.408103 -0.593613 0.396640 -0.700215 254 187 0
0.000000 0.004520 -0.408103 -0.593613 0.396640 -0.700215 254 187 0
-0.377038 0.160694 0.000000 -0.593613 0.396640 -0.700215 254 187 0
-0.377038 0.160694 0.000000 -0.700214 0.139281 -0.700215 254 187 0
0.000000 0.004520 -0.408103 -0.700214 0.139281 -0.700215 254 187 0
0.000000 0.004520 -0.408103 -0.700214 0.139281 -0.700215 254 187 0
-0.408103 0.004520 0.000000 -0.700214 0.139281 -0.700215 254 187 0
-0.408103 0.004520 0.000000 -0.700214 -0.139281 -0.700215 254 187 0
0.000000 0.004520 -0.408103 -0.700214 -0.139281 -0.700215 254 187 0
0.000000 0.004520 -0.408103 -0.700214 -0.139281 -0.700215 254 187 0
-0.377038 -0.151655 0.000000 -0.700214 -0.139281 -0.700215 254 187 0
-0.377038 -0.151655 0.000000 -0.593613 -0.396640 -0.700215 254 187 0
0.000000 0.004520 -0.408103 -0.593613 -0.396640 -0.700215 254 187 0
0.000000 0.004520 -0.408103 -0.593613 -0.396640 -0.700215 254 187 0
-0.288572 -0.284053 0.000000 -0.593613 -0.396640 -0.700215 254 187 0
-0.288572 -0.284053 0.000000 -0.396640 -0.593613 -0.700215 254 187 0
0.000000 0.004520 -0.408103 -0.396640 -0.593613 -0.700215 254 187 0
0.000000 0.004520 -0.408103 -0.396640 -0.593613 -0.700215 254 187 0
-0.156174 -0.372518 0.000000 -0.396640 -0.593613 -0.700215 254 187 0
-0.156174 -0.372518 0.000000 -0.139281 -0.700215 -0.700215 254 187 0
0.000000 0.004520 -0.408103 -0.139281 -0.700215 -0.700215 254 187 0
0.000000 0.004520 -0.408103 -0.139281 -0.700215 -0.700215 254 187 0
0.000000 -0.403583 0.000000 -0.139281 -0.700215 -0.700215 254 187 0
0.000000 -0.403583 0.000000 0.139281 -0.700215 -0.700214 254 187 0
0.000000 0.004520 -0.408103 0.139281 -0.700215 -0.700214 254 187 0
0.000000 0.004520 -0.408103 0.139281 -0.700215 -0.700214 254 187 0
0.156174 -0.372518 0.000000 0.139281 -0.700215 -0.700214 254 187 0
0.156174 -0.372518 0.000000 0.396641 -0.593612 -0.700214 254 187 0
0.000000 0.004520 -0.408103 0.396641 -0.593612 -0.700214 254 187 0
0.000000 0.004520 -0.408103 0.396641 -0.593612 -0.700214 254 187 0
0.288572 -0.284053 0.000000 0.396641 -0.593612 -0.700214 254 187 0
0.288572 -0.284053 0.000000 0.593613 -0.396640 -0.700214 254 187 0
0.000000 0.004520 -0.408103 0.593613 -0.396640 -0.700214 254 187 0
0.000000 0.004520 -0.408103 0.593613 -0.396640 -0.700214 254 187 0
0.377038 -0.151655 0.000000 0.593613 -0.396640 -0.700214 254 187 0
0.377038 -0.151655 0.000000 0.700215 -0.139281 -0.700214 254 187 0
0.000000 0.004520 -0.408103 0.700215 -0.139281 -0.700214 254 187 0
0.000000 0.004520 -0.408103 0.700215 -0.139281 -0.700214 254 187 0
0.408103 0.004520 0.000000 0.700215 -0.139281 -0.700214 254 187 0
4 0 1 2 3
4 4 5 6 7
4 8 9 10 11
4 12 13 14 15
4 16 17 18 19
4 20 21 22 23
4 24 25 26 27
4 28 29 30 31
4 32 33 34 35
4 36 37 38 39
4 40 41 42 43
4 44 45 46 47
4 48 49 50 51
4 52 53 54 55
4 56 57 58 59
4 60 61 62 63
4 64 65 66 67
4 68 69 70 71
4 71 70 72 73
4 74 75 76 77
4 78 79 80 81
4 81 80 82 83
4 83 82 84 85
4 85 84 86 87
4 87 86 88 89
4 89 88 90 91
4 91 90 92 93
4 93 92 94 95
4 95 94 96 97
4 98 99 100 101
4 102 103 104 105
4 65 64 106 107
4 108 109 110 111
4 111 110 112 113
4 114 115 116 117
4 118 119 120 121
4 121 120 122 123
4 123 122 124 125
4 125 124 126 127
4 127 126 128 129
4 129 128 130 131
4 131 130 132 133
4 133 132 134 135
4 135 134 136 137
4 137 136 138 139
4 139 138 140 141
4 142 143 144 145
4 146 147 109 108
4 148 149 150 151
4 151 150 152 153
4 154 155 156 157
4 158 159 160 161
4 161 160 162 163
4 164 165 166 167
4 168 169 170 171
4 171 170 172 173
4 173 172 174 175
4 175 174 176 177
4 177 176 178 179
4 179 178 180 181
4 181 180 182 183
4 184 185 186 187
4 188 189 190 191
4 191 190 149 148
4 192 149 150 193
4 193 150 152 194
4 195 196 197 198
4 199 159 160 200
4 200 160 162 201
4 201 162 169 202
4 202 169 170 203
4 203 170 172 204
4 204 172 174 205
4 205 174 176 206
4 206 176 178 207
4 207 178 180 208
4 208 180 182 209
4 210 211 212 213
4 214 189 190 215
4 215 190 149 192
4 216 217 218 219
4 220 221 222 223
4 224 225 226 227
4 228 229 230 231
4 232 233 234 235
4 236 237 238 239
4 240 241 242 243
4 244 245 246 247
4 248 249 250 251
4 252 253 254 255
4 256 257 258 259
4 260 261 262 263
4 264 265 266 267
4 268 269 270 271
4 272 273 274 275
4 276 277 278 279
