<?xml version="1.0" encoding="UTF-8" standalone="no"?>
<svg
   xmlns:dc="http://purl.org/dc/elements/1.1/"
   xmlns:cc="http://creativecommons.org/ns#"
   xmlns:rdf="http://www.w3.org/1999/02/22-rdf-syntax-ns#"
   xmlns:svg="http://www.w3.org/2000/svg"
   xmlns="http://www.w3.org/2000/svg"
   xmlns:sodipodi="http://sodipodi.sourceforge.net/DTD/sodipodi-0.dtd"
   xmlns:inkscape="http://www.inkscape.org/namespaces/inkscape"
   version="1.1"
   id="Your_Icon"
   x="0px"
   y="0px"
   width="100px"
   height="100px"
   viewBox="0 0 100 100"
   enable-background="new 0 0 100 100"
   xml:space="preserve"
   inkscape:version="0.48.4 r9939"
   sodipodi:docname="rotate.svg"><metadata
     id="metadata17"><rdf:RDF><cc:Work
         rdf:about=""><dc:format>image/svg+xml</dc:format><dc:type
           rdf:resource="http://purl.org/dc/dcmitype/StillImage" /><dc:title></dc:title></cc:Work></rdf:RDF></metadata><defs
     id="defs15" /><sodipodi:namedview
     pagecolor="#ffffff"
     bordercolor="#666666"
     borderopacity="1"
     objecttolerance="10"
     gridtolerance="10"
     guidetolerance="10"
     inkscape:pageopacity="0"
     inkscape:pageshadow="2"
     inkscape:window-width="729"
     inkscape:window-height="480"
     id="namedview13"
     showgrid="false"
     inkscape:zoom="2.36"
     inkscape:cx="50"
     inkscape:cy="46.610169"
     inkscape:window-x="175"
     inkscape:window-y="27"
     inkscape:window-maximized="0"
     inkscape:current-layer="Your_Icon" /><g
     id="g3"><path
       d="M7.976,42.583c0.341-0.488,0.949-0.952,1.431-1.326C12.784,38.629,18,36.076,28,34.463v-9.396   c-8,1.092-14.32,2.893-20.441,6.749c-2.057,1.658-3.127,2.703-3.18,5.047C4.336,38.78,5.476,40.698,7.976,42.583z"
       id="path5" /><path
       d="M49,56.123c-10-0.103-19.235-1.107-28.6-3.306c-16.666-3.91-18.737-9.388-19.614-11.22C0.193,48.908,0.959,54.393,1,54.858   c0.569,6.492,7.992,11.571,13.348,13.479C25.358,72.26,37,74.289,49,74.46v10.749l20.113-20.113L49,44.982V56.123z"
       id="path7" /><path
       d="M47,33.208c10,0.045,21.362,1.464,32.452,4.816c4.549,1.375,8.213,3.42,11.187,5.646c2.051-0.659,4.991-3.162,4.586-5.592   c-1-6.005-10.062-9.481-11.632-9.971C72.64,24.685,59,23.626,47,23.525v-7.547L34.545,28.434L47,40.888V33.208z"
       id="path9" /><path
       d="M99.115,41.281C98.605,44.084,94,50.086,75,53.889v19.578c7-1.591,15.25-5.606,19.666-9.514   c1.801-1.591,2.902-3.786,3.572-5.374C100.293,53.72,99.389,44.241,99.115,41.281z"
       id="path11" /></g></svg>